<?xml version="1.0" encoding="UTF-8"?>
<svg xmlns="http://www.w3.org/2000/svg" xmlns:xlink="http://www.w3.org/1999/xlink" width="1872mm" height="1053mm" viewBox="0 0 1872 1053" xmlns:c2pa="http://c2pa.org/manifest"><metadata><c2pa:manifest>AAAWgmp1bWIAAAAeanVtZGMycGEAEQAQgAAAqgA4m3EDYzJwYQAAABZcanVtYgAAAEdqdW1kYzJtYQARABCAAACqADibcQN1cm46YzJwYTpiZThhZjM4OS05MzIyLTQ1NmQtOTVkYi0xNDU5NDkwMDI1YjQAAAADl2p1bWIAAAApanVtZGMyYXMAEQAQgAAAqgA4m3EDYzJwYS5hc3NlcnRpb25zAAAAALxqdW1iAAAARGp1bWRjYm9yABEAEIAAAKoAOJtxE2MycGEuaW5ncmVkaWVudC52MwAAAAAYYzJzaPKllNc7vyZGeNCXSkhA1o8AAABwY2JvcqNpZGM6Zm9ybWF0bWltYWdlL3N2Zyt4bWxqaW5zdGFuY2VJRHgseG1wOmlpZDpiMTEzNzU1YS0wMTVlLTQ5ZDctOGIyYS1hZjU5M2U2NGVmMmNscmVsYXRpb25zaGlwaHBhcmVudE9mAAAB4mp1bWIAAABBanVtZGNib3IAEQAQgAAAqgA4m3ETYzJwYS5hY3Rpb25zLnYyAAAAABhjMnNoEwbzgv0xfVSpOEoajbZzbgAAAZljYm9yomdhY3Rpb25zgqJmYWN0aW9ua2MycGEub3BlbmVkanBhcmFtZXRlcnOha2luZ3JlZGllbnRzgaJjdXJseC1zZWxmI2p1bWJmPWMycGEuYXNzZXJ0aW9ucy9jMnBhLmluZ3JlZGllbnQudjNkaGFzaFggu60SVyCLNEodmjY0TyABaLioy9cfgYBRLOFc7F45I7mkZmFjdGlvbngdY29tLmFudGhyb3BpYy5jbGF1ZGUucHJvdmlkZWRqcGFyYW1ldGVyc6F4H2NvbS5hbnRocm9waWMub3JpZ2luLWNvbmZpZGVuY2VndW5rbm93bmtkZXNjcmlwdGlvbnhmQ2xhdWRlIHByb3ZpZGVkIHRoaXMgZmlsZSBhdCB0aGUgcmVxdWVzdCBvZiBhIHVzZXIgYW5kIG1heSBoYXZlIGNyZWF0ZWQgb3IgbW9kaWZpZWQgdGhlIGZpbGUgY29udGVudHMubXNvZnR3YXJlQWdlbnShZG5hbWVmQ2xhdWRlcmFsbEFjdGlvbnNJbmNsdWRlZPUAAADIanVtYgAAAEBqdW1kY2JvcgARABCAAACqADibcRNjMnBhLmhhc2guZGF0YQAAAAAYYzJzaKWZvD631ZpbUIG41DInzTAAAACAY2JvcqVjYWxnZnNoYTI1NmNwYWRNAAAAAAAAAAAAAAAAAGRoYXNoWCDqcyebDqPKPdOOMrptjXLmWOPRPQTgpOHTKTmo5j+N62RuYW1lbmp1bWJmIG1hbmlmZXN0amV4Y2x1c2lvbnOBomVzdGFydBjwZmxlbmd0aBkeBAAAAj5qdW1iAAAAJ2p1bWRjMmNsABEAEIAAAKoAOJtxA2MycGEuY2xhaW0udjIAAAACD2Nib3KlY2FsZ2ZzaGEyNTZpc2lnbmF0dXJleE1zZWxmI2p1bWJmPS9jMnBhL3VybjpjMnBhOmJlOGFmMzg5LTkzMjItNDU2ZC05NWRiLTE0NTk0OTAwMjViNC9jMnBhLnNpZ25hdHVyZWppbnN0YW5jZUlEeCx4bXA6aWlkOjIyMzNlYWM1LTQ4YzEtNGI5MC1hNWNiLTJlNDU0N2QxMGMxNHJjcmVhdGVkX2Fzc2VydGlvbnODomN1cmx4LXNlbGYjanVtYmY9YzJwYS5hc3NlcnRpb25zL2MycGEuaW5ncmVkaWVudC52M2RoYXNoWCC7rRJXIIs0Sh2aNjRPIAFouKjL1x+BgFEs4VzsXjkjuaJjdXJseCpzZWxmI2p1bWJmPWMycGEuYXNzZXJ0aW9ucy9jMnBhLmFjdGlvbnMudjJkaGFzaFgghIEUF5X8ZlGuSEGa0brBOw3iCUHyToUIjuxL/IlNegiiY3VybHgpc2VsZiNqdW1iZj1jMnBhLmFzc2VydGlvbnMvYzJwYS5oYXNoLmRhdGFkaGFzaFggoIj+p5ppSryg6C4wRJq7hcYvpTtlbrYJ45BGxpnW0aF0Y2xhaW1fZ2VuZXJhdG9yX2luZm+jZG5hbWVvQW50aHJvcGljIEZpbGVzZ3ZlcnNpb25lMS4wLjBrc3BlY1ZlcnNpb25lMi40LjAAABA4anVtYgAAAChqdW1kYzJjcwARABCAAACqADibcQNjMnBhLnNpZ25hdHVyZQAAABAIY2JvctKEWQISogEmGCFZAgowggIGMIIBjaADAgECAhRA5aAK7sI50L64g/oGQgU9Z1UTADAKBggqhkjOPQQDAzBJMRcwFQYDVQQKEw5BbnRocm9waWMsIFBCQzEuMCwGA1UEAxMlQW50aHJvcGljIENvbnRlbnQgQ3JlZGVudGlhbHMgUm9vdCBDQTAeFw0yNjA4MDcxODQzNTZaFw0yODA4MDYxOTQzNTZaMEQxFzAVBgNVBAoTDkFudGhyb3BpYywgUEJDMSkwJwYDVQQDEyBBbnRocm9waWMgQ2xhdWRlIENvbnRlbnQgU2lnbmluZzBZMBMGByqGSM49AgEGCCqGSM49AwEHA0IABJh6CmvLUBgFFNU0vUKlOVtE6djd17L5SuwX0LemFisBM3dkd/3cyjxFA3Qo5S46fX0/ihY0VZ7mfb9KF703t5OjWDBWMA4GA1UdDwEB/wQEAwIHgDAVBgNVHSUEDjAMBgorBgEEAYPoXgIBMAwGA1UdEwEB/wQCMAAwHwYDVR0jBBgwFoAUzlHiBIFOZFsj+OPEz5o+nMHXXMIwCgYIKoZIzj0EAwMDZwAwZAIwMXMdFJ4BetLLVY7ORuE9noqbbAZOZn/aArXyTwFAZfKrPzxF2vPoJNf1+UCdg1XGAjBwX1zd9WGqYkqmL5SFqw1QySjr1zJfpJM9+1rdDwSPLMOPOjKuiXjoU/pUUeG9RwmhY3BhZFkNngAAAAAAAAAAAAAAAAAAAAAAAAAAAAAAAAAAAAAAAAAAAAAAAAAAAAAAAAAAAAAAAAAAAAAAAAAAAAAAAAAAAAAAAAAAAAAAAAAAAAAAAAAAAAAAAAAAAAAAAAAAAAAAAAAAAAAAAAAAAAAAAAAAAAAAAAAAAAAAAAAAAAAAAAAAAAAAAAAAAAAAAAAAAAAAAAAAAAAAAAAAAAAAAAAAAAAAAAAAAAAAAAAAAAAAAAAAAAAAAAAAAAAAAAAAAAAAAAAAAAAAAAAAAAAAAAAAAAAAAAAAAAAAAAAAAAAAAAAAAAAAAAAAAAAAAAAAAAAAAAAAAAAAAAAAAAAAAAAAAAAAAAAAAAAAAAAAAAAAAAAAAAAAAAAAAAAAAAAAAAAAAAAAAAAAAAAAAAAAAAAAAAAAAAAAAAAAAAAAAAAAAAAAAAAAAAAAAAAAAAAAAAAAAAAAAAAAAAAAAAAAAAAAAAAAAAAAAAAAAAAAAAAAAAAAAAAAAAAAAAAAAAAAAAAAAAAAAAAAAAAAAAAAAAAAAAAAAAAAAAAAAAAAAAAAAAAAAAAAAAAAAAAAAAAAAAAAAAAAAAAAAAAAAAAAAAAAAAAAAAAAAAAAAAAAAAAAAAAAAAAAAAAAAAAAAAAAAAAAAAAAAAAAAAAAAAAAAAAAAAAAAAAAAAAAAAAAAAAAAAAAAAAAAAAAAAAAAAAAAAAAAAAAAAAAAAAAAAAAAAAAAAAAAAAAAAAAAAAAAAAAAAAAAAAAAAAAAAAAAAAAAAAAAAAAAAAAAAAAAAAAAAAAAAAAAAAAAAAAAAAAAAAAAAAAAAAAAAAAAAAAAAAAAAAAAAAAAAAAAAAAAAAAAAAAAAAAAAAAAAAAAAAAAAAAAAAAAAAAAAAAAAAAAAAAAAAAAAAAAAAAAAAAAAAAAAAAAAAAAAAAAAAAAAAAAAAAAAAAAAAAAAAAAAAAAAAAAAAAAAAAAAAAAAAAAAAAAAAAAAAAAAAAAAAAAAAAAAAAAAAAAAAAAAAAAAAAAAAAAAAAAAAAAAAAAAAAAAAAAAAAAAAAAAAAAAAAAAAAAAAAAAAAAAAAAAAAAAAAAAAAAAAAAAAAAAAAAAAAAAAAAAAAAAAAAAAAAAAAAAAAAAAAAAAAAAAAAAAAAAAAAAAAAAAAAAAAAAAAAAAAAAAAAAAAAAAAAAAAAAAAAAAAAAAAAAAAAAAAAAAAAAAAAAAAAAAAAAAAAAAAAAAAAAAAAAAAAAAAAAAAAAAAAAAAAAAAAAAAAAAAAAAAAAAAAAAAAAAAAAAAAAAAAAAAAAAAAAAAAAAAAAAAAAAAAAAAAAAAAAAAAAAAAAAAAAAAAAAAAAAAAAAAAAAAAAAAAAAAAAAAAAAAAAAAAAAAAAAAAAAAAAAAAAAAAAAAAAAAAAAAAAAAAAAAAAAAAAAAAAAAAAAAAAAAAAAAAAAAAAAAAAAAAAAAAAAAAAAAAAAAAAAAAAAAAAAAAAAAAAAAAAAAAAAAAAAAAAAAAAAAAAAAAAAAAAAAAAAAAAAAAAAAAAAAAAAAAAAAAAAAAAAAAAAAAAAAAAAAAAAAAAAAAAAAAAAAAAAAAAAAAAAAAAAAAAAAAAAAAAAAAAAAAAAAAAAAAAAAAAAAAAAAAAAAAAAAAAAAAAAAAAAAAAAAAAAAAAAAAAAAAAAAAAAAAAAAAAAAAAAAAAAAAAAAAAAAAAAAAAAAAAAAAAAAAAAAAAAAAAAAAAAAAAAAAAAAAAAAAAAAAAAAAAAAAAAAAAAAAAAAAAAAAAAAAAAAAAAAAAAAAAAAAAAAAAAAAAAAAAAAAAAAAAAAAAAAAAAAAAAAAAAAAAAAAAAAAAAAAAAAAAAAAAAAAAAAAAAAAAAAAAAAAAAAAAAAAAAAAAAAAAAAAAAAAAAAAAAAAAAAAAAAAAAAAAAAAAAAAAAAAAAAAAAAAAAAAAAAAAAAAAAAAAAAAAAAAAAAAAAAAAAAAAAAAAAAAAAAAAAAAAAAAAAAAAAAAAAAAAAAAAAAAAAAAAAAAAAAAAAAAAAAAAAAAAAAAAAAAAAAAAAAAAAAAAAAAAAAAAAAAAAAAAAAAAAAAAAAAAAAAAAAAAAAAAAAAAAAAAAAAAAAAAAAAAAAAAAAAAAAAAAAAAAAAAAAAAAAAAAAAAAAAAAAAAAAAAAAAAAAAAAAAAAAAAAAAAAAAAAAAAAAAAAAAAAAAAAAAAAAAAAAAAAAAAAAAAAAAAAAAAAAAAAAAAAAAAAAAAAAAAAAAAAAAAAAAAAAAAAAAAAAAAAAAAAAAAAAAAAAAAAAAAAAAAAAAAAAAAAAAAAAAAAAAAAAAAAAAAAAAAAAAAAAAAAAAAAAAAAAAAAAAAAAAAAAAAAAAAAAAAAAAAAAAAAAAAAAAAAAAAAAAAAAAAAAAAAAAAAAAAAAAAAAAAAAAAAAAAAAAAAAAAAAAAAAAAAAAAAAAAAAAAAAAAAAAAAAAAAAAAAAAAAAAAAAAAAAAAAAAAAAAAAAAAAAAAAAAAAAAAAAAAAAAAAAAAAAAAAAAAAAAAAAAAAAAAAAAAAAAAAAAAAAAAAAAAAAAAAAAAAAAAAAAAAAAAAAAAAAAAAAAAAAAAAAAAAAAAAAAAAAAAAAAAAAAAAAAAAAAAAAAAAAAAAAAAAAAAAAAAAAAAAAAAAAAAAAAAAAAAAAAAAAAAAAAAAAAAAAAAAAAAAAAAAAAAAAAAAAAAAAAAAAAAAAAAAAAAAAAAAAAAAAAAAAAAAAAAAAAAAAAAAAAAAAAAAAAAAAAAAAAAAAAAAAAAAAAAAAAAAAAAAAAAAAAAAAAAAAAAAAAAAAAAAAAAAAAAAAAAAAAAAAAAAAAAAAAAAAAAAAAAAAAAAAAAAAAAAAAAAAAAAAAAAAAAAAAAAAAAAAAAAAAAAAAAAAAAAAAAAAAAAAAAAAAAAAAAAAAAAAAAAAAAAAAAAAAAAAAAAAAAAAAAAAAAAAAAAAAAAAAAAAAAAAAAAAAAAAAAAAAAAAAAAAAAAAAAAAAAAAAAAAAAAAAAAAAAAAAAAAAAAAAAAAAAAAAAAAAAAAAAAAAAAAAAAAAAAAAAAAAAAAAAAAAAAAAAAAAAAAAAAAAAAAAAAAAAAAAAAAAAAAAAAAAAAAAAAAAAAAAAAAAAAAAAAAAAAAAAAAAAAAAAAAAAAAAAAAAAAAAAAAAAAAAAAAAAAAAAAAAAAAAAAAAAAAAAAAAAAAAAAAAAAAAAAAAAAAAAAAAAAAAAAAAAAAAAAAAAAAAAAAAAAAAAAAAAAAAAAAAAAAAAAAAAAAAAAAAAAAAAAAAAAAAAAAAAAAAAAAAAAAAAAAAAAAAAAAAAAAAAAAAAAAAAAAAAAAAAAAAAAAAAAAAAAAAAAAAAAAAAAAAAAAAAAAAAAAAAAAAAAAAAAAAAAAAAAAAAAAAAAAAAAAAAAAAAAAAAAAAAAAAAAAAAAAAAAAAAAAAAAAAAAAAAAAAAAAAAAAAAAAAAAAAAAAAAAAAAAAAAAAAAAAAAAAAAAAAAAAAAAAAAAAAAAAAAAAAAAAAAAAAAAAAAAAAAAAAAAAAAAAAAAAAAAAAAAAAAAAAAAAAAAAAAAAAAAAAAAAAAAAAAAAAAAAAAAAAAAAAAAAAAAAAAAAAAAAAAAAAAAAAAAAAAAAAAAAAAAAAAAAAAAAAAAAAAAAAAAAAAAAAAAAAAAAAAAAAAAAAAAAAAAAAAAAAAAAAAAAAAAAAAAAAAAAAAAAAAAAAAAAAAAAAAAAAAAAAAAAAAAAAAAAAAAAAAAAAAAAAAAAAAAAAAAAAAAAAAAAAAAAAAAAAAAAAAAAAAAAAAAAAAAAAAAAAAAAAAAAAAAAAAAAAAAAAAAAAAAAAAAAAAAAAAAAAAAAAAAAAAAAAAAAAAAAAAAAAAAAAAAAAAAAAAAAAAAAAAAAAAAAAAAAAAAAAAAAAAAAAAAAAAAAAAAAAAAAAAAAAAAAAAAAAAAAAAAAAAAAAAAAAAAAAAAAAAAAAAAAAAAAAAAAAAAAAAAAAAAAAAAAAAAAAAAAAAAAAAAAAAAAAAAAAAAAAAAAAAAAAAAAAAAAAAAAAAAAAAAAAAAAAAAAAAAAAAAAAAAAAAAAAAAAAAAAAAAAAAAAAAAAAAAAAAAAAAAAAAAAAAAAAAAAAAAAAAAAAAAAAAAAAAAAAAAAAAAAAAAAAAAAAAAAAAAAAAAAAAAAAAAAAAAAAAAAAAAAAAAAAAAAAAAAAAAAAAAAAAAAAAAAAAAAAAAAAAAAAAAAAAAAAAAAAAAAAAAAAAAAAAAAAAAAAAAAAAAAAAAAAAAAAAAAAAAAAAAAAAAAAAAAAAAAAAAAAAAAAAAAAAAAAAAAAAAAAAAAAAAAAAAAAAAAAAAAAAAAAAAAAAAAAAAAAAAAAAAAAAAAAAAAAAAAAAAAAAAAAAAAAAAAAAAAAAAAAAAAAAAAAAAAAAAAAAAAAAAAAAAAAAAAAAAAAAAAAAAAAAAAAAAAAAAAAAAAAAAAAAAAAAAAAAAAAAAAAAAAAAAAAAAAAAAAAAAAAAAAAAAAAAAAAAAAAAAAAAAAAAAAAAAAAAAAAAAAAAAAAAAAAAAAAAAAAAAAAAAAAAAAAAAAAAAAAAAAAAAAAAAAAAAAAAAAAAAAAAAAAAAAAAAAAAAAAAAAAAAAAAAAAPZYQOrrnaiEDkJMuKI7e16tPtAt2VTFFZj+gAPOaOrnmIi2f2cm3pMVLxTPK5xJXSSRCT68Z/aFUfnu1eCeq4ON+ZM=</c2pa:manifest></metadata>
<!-- Máscara física · tarjeta DG Gel ABO/Rh a partir de la foto de referencia · escala 1:1 mm
     Área activa de referencia 85" 16:9 = 1872 x 1053 mm. Confirmar con la ficha del TV; si difiere, escalar todo proporcionalmente.
     Capa "arte": la foto de la tarjeta (mascara.png) va impresa ocupando el rectángulo azul (x 234.0 mm, ancho 1404.0 mm, alto 1053 mm).
     Capa "corte" (rojo): 8 interiores de tubo + ventana del nombre. La pantalla asoma solo por ahí. -->
<rect x="234.0" y="0" width="1404.0" height="1053" fill="none" stroke="#1DA1D8" stroke-width="0.8" stroke-dasharray="6 4"/>
<rect x="0" y="0" width="1872" height="1053" fill="none" stroke="#999" stroke-width="0.5" stroke-dasharray="2 4"/>
<g fill="none" stroke="#E4342B" stroke-width="0.8">
<path d="M313.5,60.1 L426.0,60.1 L426.0,160.0 L397.9,242.4 L397.9,471.2 L397.9,471.2 L397.7,474.2 L397.3,477.1 L396.5,479.9 L395.4,482.7 L394.1,485.3 L392.5,487.8 L390.6,490.0 L388.6,492.1 L386.3,494.0 L383.8,495.6 L381.2,496.9 L378.4,498.0 L375.6,498.7 L372.7,499.2 L369.7,499.4 L366.8,499.2 L363.9,498.7 L361.1,498.0 L358.3,496.9 L355.7,495.6 L353.2,494.0 L350.9,492.1 L348.8,490.0 L347.0,487.8 L345.4,485.3 L344.1,482.7 L343.0,479.9 L342.2,477.1 L341.8,474.2 L341.6,471.2 L341.6,471.2 L341.6,242.4 L313.5,160.0 Z"/>
<path d="M475.4,60.1 L587.9,60.1 L587.9,160.0 L559.8,242.4 L559.8,471.2 L559.8,471.2 L559.6,474.2 L559.2,477.1 L558.4,479.9 L557.4,482.7 L556.0,485.3 L554.4,487.8 L552.6,490.0 L550.5,492.1 L548.2,494.0 L545.7,495.6 L543.1,496.9 L540.4,498.0 L537.5,498.7 L534.6,499.2 L531.7,499.4 L528.7,499.2 L525.8,498.7 L523.0,498.0 L520.2,496.9 L517.6,495.6 L515.1,494.0 L512.9,492.1 L510.8,490.0 L508.9,487.8 L507.3,485.3 L506.0,482.7 L504.9,479.9 L504.2,477.1 L503.7,474.2 L503.6,471.2 L503.6,471.2 L503.6,242.4 L475.4,160.0 Z"/>
<path d="M638.3,60.1 L750.8,60.1 L750.8,160.0 L722.7,242.4 L722.7,471.2 L722.7,471.2 L722.5,474.2 L722.1,477.1 L721.3,479.9 L720.3,482.7 L718.9,485.3 L717.3,487.8 L715.5,490.0 L713.4,492.1 L711.1,494.0 L708.6,495.6 L706.0,496.9 L703.3,498.0 L700.4,498.7 L697.5,499.2 L694.6,499.4 L691.6,499.2 L688.7,498.7 L685.9,498.0 L683.1,496.9 L680.5,495.6 L678.0,494.0 L675.8,492.1 L673.7,490.0 L671.8,487.8 L670.2,485.3 L668.9,482.7 L667.8,479.9 L667.1,477.1 L666.6,474.2 L666.4,471.2 L666.4,471.2 L666.4,242.4 L638.3,160.0 Z"/>
<path d="M800.3,60.1 L912.7,60.1 L912.7,160.0 L884.6,242.4 L884.6,471.2 L884.6,471.2 L884.5,474.2 L884.0,477.1 L883.2,479.9 L882.2,482.7 L880.8,485.3 L879.2,487.8 L877.4,490.0 L875.3,492.1 L873.0,494.0 L870.6,495.6 L867.9,496.9 L865.2,498.0 L862.3,498.7 L859.4,499.2 L856.5,499.4 L853.6,499.2 L850.6,498.7 L847.8,498.0 L845.1,496.9 L842.4,495.6 L840.0,494.0 L837.7,492.1 L835.6,490.0 L833.7,487.8 L832.1,485.3 L830.8,482.7 L829.7,479.9 L829.0,477.1 L828.5,474.2 L828.4,471.2 L828.4,471.2 L828.4,242.4 L800.3,160.0 Z"/>
<path d="M955.4,60.1 L1067.9,60.1 L1067.9,160.0 L1039.7,242.4 L1039.7,471.2 L1039.7,471.2 L1039.6,474.2 L1039.1,477.1 L1038.4,479.9 L1037.3,482.7 L1036.0,485.3 L1034.4,487.8 L1032.5,490.0 L1030.4,492.1 L1028.2,494.0 L1025.7,495.6 L1023.1,496.9 L1020.3,498.0 L1017.5,498.7 L1014.6,499.2 L1011.6,499.4 L1008.7,499.2 L1005.8,498.7 L1002.9,498.0 L1000.2,496.9 L997.6,495.6 L995.1,494.0 L992.8,492.1 L990.7,490.0 L988.9,487.8 L987.3,485.3 L985.9,482.7 L984.9,479.9 L984.1,477.1 L983.7,474.2 L983.5,471.2 L983.5,471.2 L983.5,242.4 L955.4,160.0 Z"/>
<path d="M1122.2,60.1 L1234.6,60.1 L1234.6,160.0 L1206.5,242.4 L1206.5,471.2 L1206.5,471.2 L1206.4,474.2 L1205.9,477.1 L1205.1,479.9 L1204.1,482.7 L1202.8,485.3 L1201.2,487.8 L1199.3,490.0 L1197.2,492.1 L1194.9,494.0 L1192.5,495.6 L1189.8,496.9 L1187.1,498.0 L1184.2,498.7 L1181.3,499.2 L1178.4,499.4 L1175.5,499.2 L1172.6,498.7 L1169.7,498.0 L1167.0,496.9 L1164.3,495.6 L1161.9,494.0 L1159.6,492.1 L1157.5,490.0 L1155.7,487.8 L1154.1,485.3 L1152.7,482.7 L1151.7,479.9 L1150.9,477.1 L1150.4,474.2 L1150.3,471.2 L1150.3,471.2 L1150.3,242.4 L1122.2,160.0 Z"/>
<path d="M1284.1,60.1 L1396.6,60.1 L1396.6,160.0 L1368.4,242.4 L1368.4,471.2 L1368.4,471.2 L1368.3,474.2 L1367.8,477.1 L1367.1,479.9 L1366.0,482.7 L1364.7,485.3 L1363.1,487.8 L1361.2,490.0 L1359.1,492.1 L1356.9,494.0 L1354.4,495.6 L1351.8,496.9 L1349.0,498.0 L1346.2,498.7 L1343.3,499.2 L1340.3,499.4 L1337.4,499.2 L1334.5,498.7 L1331.6,498.0 L1328.9,496.9 L1326.3,495.6 L1323.8,494.0 L1321.5,492.1 L1319.4,490.0 L1317.6,487.8 L1316.0,485.3 L1314.6,482.7 L1313.6,479.9 L1312.8,477.1 L1312.4,474.2 L1312.2,471.2 L1312.2,471.2 L1312.2,242.4 L1284.1,160.0 Z"/>
<path d="M1445.0,60.1 L1557.5,60.1 L1557.5,160.0 L1529.4,242.4 L1529.4,471.2 L1529.4,471.2 L1529.2,474.2 L1528.8,477.1 L1528.0,479.9 L1527.0,482.7 L1525.6,485.3 L1524.0,487.8 L1522.2,490.0 L1520.1,492.1 L1517.8,494.0 L1515.3,495.6 L1512.7,496.9 L1510.0,498.0 L1507.1,498.7 L1504.2,499.2 L1501.3,499.4 L1498.3,499.2 L1495.4,498.7 L1492.6,498.0 L1489.8,496.9 L1487.2,495.6 L1484.8,494.0 L1482.5,492.1 L1480.4,490.0 L1478.5,487.8 L1476.9,485.3 L1475.6,482.7 L1474.5,479.9 L1473.8,477.1 L1473.3,474.2 L1473.2,471.2 L1473.2,471.2 L1473.2,242.4 L1445.0,160.0 Z"/>
<rect x="524.9" y="722.4" width="998.7" height="126.0" rx="13.6"/>
</g>
<text x="10" y="1040" font-family="Arial" font-size="12" fill="#555">Máscara DG Gel 85" · rojo = corte · azul = borde del arte impreso (foto) · gris = área activa 1872x1053 mm · escala 0.9696 mm/px</text>
</svg>